# xmcd
#
# Track frame offsets: 
#        150
#        174175
#        183243
#
# Disc length: 2754 seconds
#
# Revision: 2
# Processed by: cddbd v1.5.2PL0 Copyright (c) Steve Scherf et al.
# Submitted via: ExactAudioCopy v1.0b3
#
DISCID=180ac003
DTITLE=Fred Frith - Anne Bourne - John Oswald - Dearness
DYEAR=2002
DGENRE=Free Improvisation
TTITLE0=A Walk Is An Adventure
TTITLE1=Three Hundred Ears And An Ocean
TTITLE2=Lower Flower
EXTD=YEAR: 2002
EXTT0=
EXTT1=
EXTT2=
PLAYORDER=
